<?xml version="1.0" encoding="UTF-8"?>
<svg version="1.1" xmlns="http://www.w3.org/2000/svg" width="512" height="512">
<path d="M0 0 C1.08667969 0.96099609 1.08667969 0.96099609 2.1953125 1.94140625 C13.84050293 12.83136466 22.92015226 26.81205576 30 41 C30.31662598 41.63196289 30.63325195 42.26392578 30.95947266 42.91503906 C34.89120918 50.9263372 37.820723 59.12264086 40.3125 67.6875 C40.55508545 68.51789795 40.7976709 69.3482959 41.04760742 70.20385742 C44.09265964 81.20544056 45.31224154 92.16956681 45.3359375 103.5625 C45.3425943 104.71508301 45.3492511 105.86766602 45.35610962 107.05517578 C45.36616108 109.47866236 45.37092899 111.90217619 45.37060547 114.32568359 C45.37495659 117.96370046 45.41129934 121.60047978 45.44921875 125.23828125 C45.62350706 161.31058636 34.30789217 189.84786395 16.58203125 220.7265625 C12.68332804 227.52413495 8.90031071 234.3835434 5.125 241.25 C3.76598859 243.71895025 2.4064439 246.1876067 1.046875 248.65625 C0.71010239 249.26790009 0.37332977 249.87955017 0.02635193 250.50973511 C-8.82270405 266.57625131 -17.76312961 282.59209003 -26.7331543 298.59130859 C-30.98416053 306.17689361 -35.21592945 313.77299684 -39.4375 321.375 C-40.05794189 322.49213379 -40.67838379 323.60926758 -41.31762695 324.76025391 C-44.50142777 330.49464072 -47.68198264 336.23080991 -50.859375 341.96875 C-52.1351517 344.27098018 -53.4111909 346.57306493 -54.6875 348.875 C-55.30665283 349.99173096 -55.92580566 351.10846191 -56.5637207 352.2590332 C-60.98951078 360.22405089 -65.48109238 368.14921302 -70.05737305 376.02880859 C-72.85480949 380.87461086 -75.43240487 385.78036649 -77.86328125 390.82080078 C-81.77608926 398.32203022 -87.98026411 403.2007692 -95.9375 405.8125 C-104.16866301 407.98512975 -111.12177069 407.336957 -119 404 C-128.98899287 398.15537651 -134.13487591 389.43760757 -139.17633057 379.33724976 C-140.80586187 376.07404596 -142.46799004 372.82743563 -144.125 369.578125 C-144.4556546 368.92756638 -144.7863092 368.27700775 -145.12698364 367.60673523 C-148.02695586 361.91199879 -151.0448128 356.2868514 -154.125 350.6875 C-154.60533691 349.81343506 -155.08567383 348.93937012 -155.58056641 348.03881836 C-156.55353971 346.2695835 -157.5270105 344.50062213 -158.50097656 342.73193359 C-161.18900987 337.83305855 -163.84256007 332.91551629 -166.5 328 C-170.65246036 320.32552851 -174.81779266 312.65830085 -179 305 C-185.91431084 292.3372361 -192.77944658 279.6479545 -199.64550781 266.95898438 C-205.41500669 256.29758123 -211.19086546 245.63986836 -217 235 C-218.48252383 232.28269636 -219.96476657 229.56523975 -221.44677734 226.84765625 C-222.5221667 224.87605275 -223.59804581 222.90471633 -224.67431641 220.93359375 C-228.00847758 214.82364639 -231.32628078 208.70540353 -234.61669922 202.57177734 C-235.45151045 201.01972978 -236.29044072 199.46987399 -237.13720703 197.92431641 C-248.12835871 177.85234123 -254.10312274 155.01433884 -254.203125 132.16796875 C-254.20882507 131.13674393 -254.21452515 130.1055191 -254.22039795 129.04304504 C-254.22980967 126.86374931 -254.23636663 124.68443958 -254.24023438 122.50512695 C-254.24985849 119.23557287 -254.2808853 115.9666704 -254.3125 112.69726562 C-254.39560813 96.41294304 -253.27533181 80.54786188 -248.3125 64.9375 C-248.05758789 64.11862305 -247.80267578 63.29974609 -247.54003906 62.45605469 C-241.24134063 42.89773064 -231.58048635 25.44541229 -218 10 C-217.2471875 9.12601563 -216.494375 8.25203125 -215.71875 7.3515625 C-189.9853899 -21.99504336 -152.68296492 -38.67458904 -114.125 -41.75 C-71.02867756 -43.78805269 -31.79868403 -28.8836267 0 0 Z M-159 87 C-160.01900391 88.0209375 -160.01900391 88.0209375 -161.05859375 89.0625 C-170.67707931 99.34506808 -177.91744061 113.7723193 -178.625 128 C-177.79534526 144.68278717 -168.47143854 159.47158411 -157 171 C-156.26265625 171.77214844 -155.5253125 172.54429687 -154.765625 173.33984375 C-140.43118837 187.40971863 -121.66827724 192.28855292 -102.1484375 192.2421875 C-84.86452991 192.03419824 -68.87675271 185.73700247 -56 174 C-55.18144531 173.27296875 -54.36289062 172.5459375 -53.51953125 171.796875 C-41.9104153 160.90784037 -32.21132584 144.99186849 -31.625 128.6875 C-31.83782065 111.19364228 -42.04422171 95.99707632 -54 84 C-54.67417969 83.30261719 -55.34835937 82.60523438 -56.04296875 81.88671875 C-85.45812565 53.46494426 -131.73232026 59.37089299 -159 87 Z " fill="#7978FE" transform="translate(361,63)"/>
<path d="M0 0 C0.99 0.495 0.99 0.495 2 1 C2.52658017 3.50810439 2.94341457 5.96790231 3.3125 8.5 C6.62583317 28.76288261 14.07206015 46.73497443 24.5168457 64.34692383 C28.45645683 70.99530979 32.16446053 77.75012782 35.8125 84.5625 C36.40111816 85.66142578 36.98973633 86.76035156 37.59619141 87.89257812 C38.79878317 90.14037659 40.00060152 92.388589 41.20166016 94.63720703 C44.12204001 100.09815084 47.06179881 105.54863078 50 111 C51.16676377 113.16661438 52.33343034 115.3332811 53.5 117.5 C54.0775 118.5725 54.655 119.645 55.25 120.75 C88.5 182.5 88.5 182.5 90.25073242 185.75146484 C91.41484116 187.91331145 92.57906601 190.07509553 93.7434082 192.23681641 C97.30092895 198.84214736 100.85401159 205.44984126 104.40380859 212.05932617 C106.15626718 215.31694183 107.91563237 218.57075339 109.67578125 221.82421875 C111.83057162 225.81067432 113.95117398 229.81219504 116.04296875 233.83203125 C116.98690664 235.61722585 117.93091301 237.40238425 118.875 239.1875 C119.27871826 239.98269043 119.68243652 240.77788086 120.09838867 241.59716797 C124.67692973 250.16861197 131.65564731 256.14391878 141 259 C151.09108644 261.16464946 158.73579255 259.07697475 167.54296875 254.0234375 C174.23046531 248.51608739 177.92067876 240.73133458 181.75 233.125 C182.80936376 231.05895434 183.87058142 228.99385828 184.93359375 226.9296875 C185.45421387 225.91745117 185.97483398 224.90521484 186.51123047 223.86230469 C188.54453459 219.95307911 190.6593211 216.09422307 192.8125 212.25 C193.40526733 211.19147827 193.40526733 211.19147827 194.01000977 210.11157227 C194.86183896 208.5927463 195.71432556 207.0742889 196.56738281 205.55615234 C199.45686512 200.4005832 202.31931265 195.22993557 205.1875 190.0625 C206.48426334 187.72780245 207.78111541 185.39315448 209.078125 183.05859375 C209.40338165 182.47309753 209.72863831 181.88760132 210.06375122 181.28436279 C212.28617855 177.28400738 214.51001338 173.28443656 216.734375 169.28515625 C223.51504229 157.09140383 230.27525513 144.88670587 237.00997925 132.6675415 C241.82303574 123.93555421 246.65388163 115.21369975 251.5 106.5 C253.36052966 103.15188192 255.22067945 99.80355326 257.08056641 96.45507812 C258.39218848 94.09409165 259.70433628 91.73340378 261.01708984 89.37304688 C265.08017209 82.06458758 269.12247485 74.74521405 273.13378906 67.40820312 C274.33661201 65.21152491 275.54395517 63.01731278 276.75683594 60.82617188 C286.28325404 43.57518008 293.43979442 26.52968395 296.39453125 6.95703125 C297 4 297 4 299 2 C300.43897507 36.97508854 287.66548054 65.96695402 270.58203125 95.7265625 C266.68332804 102.52413495 262.90031071 109.3835434 259.125 116.25 C257.76598859 118.71895025 256.4064439 121.1876067 255.046875 123.65625 C254.71010239 124.26790009 254.37332977 124.87955017 254.02635193 125.50973511 C245.17729595 141.57625131 236.23687039 157.59209003 227.2668457 173.59130859 C223.01583947 181.17689361 218.78407055 188.77299684 214.5625 196.375 C213.94205811 197.49213379 213.32161621 198.60926758 212.68237305 199.76025391 C209.49857223 205.49464072 206.31801736 211.23080991 203.140625 216.96875 C201.8648483 219.27098018 200.5888091 221.57306493 199.3125 223.875 C198.69334717 224.99173096 198.07419434 226.10846191 197.4362793 227.2590332 C193.01048922 235.22405089 188.51890762 243.14921302 183.94262695 251.02880859 C181.14519051 255.87461086 178.56759513 260.78036649 176.13671875 265.82080078 C172.22391074 273.32203022 166.01973589 278.2007692 158.0625 280.8125 C149.83133699 282.98512975 142.87822931 282.336957 135 279 C125.01100713 273.15537651 119.86512409 264.43760757 114.82366943 254.33724976 C113.19413813 251.07404596 111.53200996 247.82743563 109.875 244.578125 C109.5443454 243.92756638 109.2136908 243.27700775 108.87301636 242.60673523 C105.97304414 236.91199879 102.9551872 231.2868514 99.875 225.6875 C99.15449463 224.37640259 99.15449463 224.37640259 98.41943359 223.03881836 C97.44646029 221.2695835 96.4729895 219.50062213 95.49902344 217.73193359 C92.81099013 212.83305855 90.15743993 207.91551629 87.5 203 C83.34753964 195.32552851 79.18220734 187.65830085 75 180 C68.08568916 167.3372361 61.22055342 154.6479545 54.35449219 141.95898438 C48.58499331 131.29758123 42.80913454 120.63986836 37 110 C35.51747617 107.28269636 34.03523343 104.56523975 32.55322266 101.84765625 C31.4778333 99.87605275 30.40195419 97.90471633 29.32568359 95.93359375 C25.99152242 89.82364639 22.67371922 83.70540353 19.38330078 77.57177734 C18.54848955 76.01972978 17.70955928 74.46987399 16.86279297 72.92431641 C6.20703153 53.46482887 -0.29784289 30.73085114 -0.0625 8.5 C-0.05798828 7.67757812 -0.05347656 6.85515625 -0.04882812 6.0078125 C-0.03718489 4.00517604 -0.01925556 2.00257773 0 0 Z " fill="#4A41A0" transform="translate(107,188)"/>
<path d="M0 0 C16.52434964 12.94335481 26.68301098 30.1740234 29.5 50.9453125 C29.822508 54.27117626 29.979219 57.47497998 29.9375 60.8125 C29.92847656 61.76125 29.91945313 62.71 29.91015625 63.6875 C29.89275391 64.739375 29.89275391 64.739375 29.875 65.8125 C28.885 66.3075 28.885 66.3075 27.875 66.8125 C27.5346875 65.66394531 27.194375 64.51539063 26.84375 63.33203125 C22.28389308 48.49686934 15.96448604 36.9414504 4.875 25.8125 C4.27429688 25.18859375 3.67359375 24.5646875 3.0546875 23.921875 C-10.46221712 10.93160303 -29.79693593 5.63813153 -48.125 5.8125 C-69.85062967 7.33095799 -86.77860555 16.6204621 -101.40625 32.25 C-109.98897923 42.2851911 -114.75092007 54.19637503 -118.125 66.8125 C-118.785 66.4825 -119.445 66.1525 -120.125 65.8125 C-121.10206834 46.70538571 -116.19606516 28.87022045 -104.125 13.8125 C-103.46886719 12.98105469 -102.81273437 12.14960938 -102.13671875 11.29296875 C-93.27047272 0.74100135 -81.89223244 -6.23305159 -69.125 -11.1875 C-68.25359375 -11.5278125 -67.3821875 -11.868125 -66.484375 -12.21875 C-43.90142849 -19.35020679 -18.79320957 -13.40662084 0 0 Z " fill="#4941A1" transform="translate(301.125,121.1875)"/>
</svg>
